<svg version="1.1" id="Icons" xmlns="http://www.w3.org/2000/svg" xmlns:xlink="http://www.w3.org/1999/xlink" x="0px" y="0px" viewBox="0 0 32 32" style="enable-background:new 0 0 32 32;" xml:space="preserve">
<path d="M27,24H9.6C9.3,24,9,23.7,9,23.4c0-0.3,0.2-0.6,0.5-0.6L27.2,20c0.4-0.1,0.8-0.4,0.8-0.8l2-11c0.1-0.5-0.3-1.1-0.8-1.2
	c-0.5-0.1-1.1,0.3-1.2,0.8L27.8,9H8.6l0-0.1c0.6-1.3,0.6-2.8-0.2-4C7.7,3.7,6.4,3,5,3H3C2.4,3,2,3.4,2,4s0.4,1,1,1h2
	c0.7,0,1.4,0.4,1.8,1c0.4,0.6,0.4,1.4,0.1,2L6.1,9.6c0,0,0,0,0,0c0,0.1,0,0.1-0.1,0.2C6,9.8,6,9.9,6,10c0,0,0,0,0,0
	c0,0.1,0,0.1,0,0.2c0,0.1,0,0.1,0,0.2L6.3,11H8c0.6,0,1,0.4,1,1s-0.4,1-1,1H7H3c-0.6,0-1,0.4-1,1s0.4,1,1,1h4.8H12c0.6,0,1,0.4,1,1
	s-0.4,1-1,1H8.5H6c-0.6,0-1,0.4-1,1s0.4,1,1,1h3.2l0.6,1.7l-0.6,0.1C7.9,21,7,22.1,7,23.4c0,1,0.5,1.8,1.3,2.3C8.1,26.1,8,26.5,8,27
	c0,1.7,1.3,3,3,3s3-1.3,3-3c0-0.4-0.1-0.7-0.2-1h7.4c-0.1,0.3-0.2,0.6-0.2,1c0,1.7,1.3,3,3,3s3-1.3,3-3c0-0.4-0.1-0.7-0.2-1H27
	c0.6,0,1-0.4,1-1S27.6,24,27,24z M11,28c-0.6,0-1-0.4-1-1s0.4-1,1-1s1,0.4,1,1S11.6,28,11,28z M24,28c-0.6,0-1-0.4-1-1s0.4-1,1-1
	s1,0.4,1,1S24.6,28,24,28z" id="id_101" style="fill: rgb(242, 191, 36);"></path>
</svg>